<svg width="40" height="40" viewBox="0 0 40 40" fill="none" xmlns="http://www.w3.org/2000/svg">
<path d="M30.7515 5.25159L26.3332 7.24992L30.7515 9.24825L32.7498 13.6666L34.7665 9.24825L39.1665 7.24992L34.7665 5.25159L32.7498 0.833252M18.9998 2.66659C8.9165 2.66659 0.666504 10.9166 0.666504 20.9999C0.666504 31.0833 8.9165 39.3333 18.9998 39.3333C29.0832 39.3333 37.3332 31.0833 37.3332 20.9999C37.3332 18.3049 36.7282 15.7383 35.6832 13.4283L33.4098 18.4149C33.5565 19.2583 33.6665 20.0833 33.6665 20.9999C33.6665 29.1216 27.1215 35.6666 18.9998 35.6666C10.8782 35.6666 4.33317 29.1216 4.33317 20.9999C4.33317 20.9266 4.33317 20.8349 4.33317 20.7616C6.69378 19.8773 8.84667 18.5157 10.6573 16.7618C12.468 15.0079 13.8975 12.8995 14.8565 10.5683C16.576 12.6823 18.7452 14.3865 21.2062 15.5567C23.6672 16.7269 26.3581 17.3338 29.0832 17.3333C29.8987 17.3325 30.7133 17.2774 31.5215 17.1683L28.8082 11.1916L20.0998 7.24992L26.5715 4.31659C24.2615 3.27159 21.6948 2.66659 18.9998 2.66659ZM13.4998 20.5416C12.892 20.5416 12.3092 20.783 11.8794 21.2128C11.4496 21.6426 11.2082 22.2255 11.2082 22.8333C11.2082 23.441 11.4496 24.0239 11.8794 24.4537C12.3092 24.8835 12.892 25.1249 13.4998 25.1249C13.8008 25.1249 14.0988 25.0656 14.3768 24.9505C14.6549 24.8353 14.9075 24.6665 15.1203 24.4537C15.3331 24.2409 15.5019 23.9883 15.6171 23.7102C15.7322 23.4322 15.7915 23.1342 15.7915 22.8333C15.7915 22.5323 15.7322 22.2343 15.6171 21.9563C15.5019 21.6782 15.3331 21.4256 15.1203 21.2128C14.9075 21 14.6549 20.8312 14.3768 20.716C14.0988 20.6009 13.8008 20.5416 13.4998 20.5416ZM24.4998 20.5416C23.892 20.5416 23.3092 20.783 22.8794 21.2128C22.4496 21.6426 22.2082 22.2255 22.2082 22.8333C22.2082 23.441 22.4496 24.0239 22.8794 24.4537C23.3092 24.8835 23.892 25.1249 24.4998 25.1249C25.1076 25.1249 25.6905 24.8835 26.1203 24.4537C26.5501 24.0239 26.7915 23.441 26.7915 22.8333C26.7915 22.2255 26.5501 21.6426 26.1203 21.2128C25.6905 20.783 25.1076 20.5416 24.4998 20.5416Z" fill="#9C9DA2"/>
</svg>
